<?xml version="1.0" encoding="utf-8"?>
<!-- Generator: Adobe Illustrator 23.0.3, SVG Export Plug-In . SVG Version: 6.00 Build 0)  -->
<svg version="1.1" id="图层_1" xmlns="http://www.w3.org/2000/svg" xmlns:xlink="http://www.w3.org/1999/xlink" x="0px" y="0px"
	 viewBox="0 0 194.3 315.9" style="enable-background:new 0 0 194.3 315.9;" xml:space="preserve">
<title>Monocle-Logo</title>
<g>
	<path d="M105.8,10.5c-0.2-0.5-0.3-0.9-0.4-1.2C106,9.4,106,9.8,105.8,10.5z"/>
	<path d="M43.5,191.3c0.1,0.7,0.9,0.9,1,1.4c0.2,0.6,0.7,0.7,1.2,0.9c0.3,0.1,0.6,0.2,1,0.4c0.5,0.2,1.1-0.1,1.6,0.4
		c0.2-0.6,0.7,0.1,0.9-0.1c0.4-0.4,0.6,0,0.5,0.2c-0.1,0.4,0.2,0.6,0.4,0.8c0.4,0.6,1.3,0.8,1.3,1.7c0,0.4,0,0.8,0.4,0.9
		c0.4,0.1,0.5-0.3,0.6-0.6c0.1-0.1,0.1-0.3,0.3-0.3c0.2,0,0.3,0.2,0.3,0.4c0,0.7,0.8,0.9,0.9,1.6c0,0.2,0.3,0.1,0.4-0.1
		c0.1-0.2,0.1-0.5-0.1-0.6c-0.4-0.4-0.4-1-0.5-1.5c0-0.5-0.1-1-0.2-1.5c-0.3-0.8-0.3-1.6-0.7-2.4c-0.5-0.8-0.7-1.7-0.1-2.6
		c0-0.1,0-0.2,0-0.3c-0.3-0.5-0.1-1.1-0.3-1.5c-0.2-0.5-0.5-0.9-0.1-1.3c0,0,0-0.2-0.1-0.3c-0.2-0.3-0.1-0.6-0.2-1
		c-0.1-0.7-0.1-1.4-0.2-2c-0.1-1.2-0.4-2.5-0.4-3.7c0-0.7,0-1.3,0-2c-0.1-0.6-0.2-1.3,0.4-1.7c0.1-0.1,0.1-0.2,0-0.3
		c-0.2-0.8-0.2-1.5,0.1-2.3c0.1-0.2,0.1-0.5,0-0.7c-0.4-0.6,0.3-1.1,0.1-1.7c0-0.1,0.1-0.2,0.2-0.1c0.6,0.3,0.6-0.3,0.8-0.6
		c0.3-0.5,0.3-1.1,0.3-1.7c0-0.3,0-0.7,0.5-0.6c0.6,0.1,0.9-0.3,1-0.9c0-0.2,0-0.5,0.3-0.6c0.9-0.3,0.5-0.8,0.3-1.3
		c-0.1-0.3-0.3-0.8,0.2-0.9c0.8-0.2,1.1-0.8,1.6-1.4c0.6-0.9,0.8-1.7,0.8-2.7c0-0.5,0.2-1,0.5-1.4c0.3-0.4,0.8-0.7,0-1.2
		c-0.2-0.1-0.1-0.3,0-0.5c0.1-0.3,0.2-0.7,0.3-1c0.3-0.9,0.3-1.9,1.1-2.5c0.4-0.3,0.3-1,0-1.3c-0.6-0.6-0.8-1.2-0.6-2.1
		c0.1-0.6,0.4-0.9,1-1.1c0.8-0.3,0.9-0.5,0.5-1.2c-0.5-0.7-0.3-1.3,0.1-1.9c0.1-0.2,0.3-0.4,0.2-0.5c-0.4-0.5-0.1-0.8,0.1-1.2
		c0.2-0.4,0.2-0.8,0-1.2c-0.2-0.5-0.1-0.8,0.3-1.1c0.5-0.4,0.7-1,0.6-1.6c-0.2-0.6-0.1-1.1,0.2-1.5c0.9-0.9,0-1.6-0.3-2.4
		c0-0.2-0.2-0.2-0.4-0.1c-0.2,0.1-0.1,0.6-0.4,0.3c-0.2-0.2,0-0.4,0.1-0.7c0.2-0.5,0.4-1.1,0.1-1.6c-0.3-0.5-0.3-1.1-0.1-1.6
		c0.2-0.4,0.2-0.9,0-1.3c-0.4-1.1-0.4-1.1,0.5-1.7c1.2-0.8,1.2-0.8,0.6-2.1c-0.3-0.6-0.4-1.3,0.1-1.6c1-0.6,0.9-1.6,1.3-2.5
		c0.1-0.4,0.2-0.6,0.6-0.8c0.8-0.4,1.1-1,0.9-1.9c0-0.2,0.1-0.3,0.2-0.4c0.6-0.5,1-1.2,1.2-1.9c0.2-0.9,0.9-1.6,1.5-1.9
		c0.8-0.5,1.1-1.2,1.7-1.7c0.4-0.4,0.6-1.2,1.4-1c0.2,0,0.3-0.2,0.3-0.4c0.1-0.2,0.2-0.4,0.3-0.4c0.9,0.2,1.6-0.6,2.5-0.2
		c0.3,0.2,0.8,0.1,1.2,0.4c0.7,0.5,1.6,0.1,2.3,0.3c0.2,0.1,0.3-0.3,0.2-0.5c-0.5-0.7,0-0.7,0.5-0.7c0.7,0,1.3,0.3,2-0.3
		c0,0.3,0,0.4,0,0.5c0,0.2,0,0.5,0.2,0.5c0.4,0,0.8-0.1,1.1-0.4c0.2-0.2,0-0.4-0.2-0.5c-0.3-0.2-0.3-0.6-0.3-0.9
		c-0.1-0.2-0.1-0.5,0.2-0.6c0.3-0.1,0.6-0.2,0.8,0.1c0.3,0.3,0.8,0.9,0.7,1.1c-0.3,0.7,0,1.1,0.4,1.5c0.2,0.2,1.6,1.1,1.9,1
		c0.2,0,0.2-0.2,0.3-0.3c0-0.2,0.1-0.5,0.4-0.3c0.2,0.1,0.2,0.3,0.1,0.5c-0.1,0.4-0.2,0.7,0,1.1c0.1,0.1,0.2,0.2,0.1,0.4
		c-0.1,0.2-0.3,0.1-0.5,0.1c-0.4-0.1-0.7-0.3-1.1-0.3c0.4,1.2,0.9,1.7,2.3,1.7c0.3,0,0.5,0,0.5,0.4c0,0.2,0.1,0.4,0.3,0.6
		c0.3,0.5,0.4,1-0.2,1.4c-0.2,0.1-0.4,0.3-0.1,0.5c0.3,0.2,0.5,0.5,0.9,0.5c0.9-0.1,1.5,0.5,2,1c0.5,0.5,0.9,1.1,1.7,1
		c0.1,0,0.3,0.1,0.4,0.2c0.7,0.8,1.7,0.9,2.7,1.3c0.8,0.3,1.5,1,2.5,1.1c0.5,0,1,0.6,1.5,0.9c0.5,0.3,0.8,0.5,0.1,0.8
		c-0.2,0.1-0.5,0.4-0.2,0.5c0.6,0.1,0.8,0.5,1,1c0.1,0.2,0.4,0.3,0.6,0.4c0.3,0,0.8-0.2,0.7,0.5c-0.1,0.4,0.5,0.5,0.3,0.9
		c-0.5,1.1-0.3,1.9,0.6,2.8c0.5,0.5,0.8,1,1.6,0.9c0.2,0,0.4,0,0.5,0.2c0.1,0.2-0.2,0.3-0.3,0.4c-1,0.5-1.4,1.3-1.9,2.3
		c-0.3,0.7-0.6,1.5-1.4,2c-0.3,0.1-0.4,0.4-0.5,0.6c-0.5,0.9-1.4,1.2-2.4,0.9c-0.4-0.1-0.8-0.2-1,0.4c-0.1,0.4-0.4,0.4-0.8,0.5
		c-0.9,0.2-1.9,0-2.7,0.6c-0.5,0.4-1.4,0.7-2.1,0.5c-0.8-0.3-1.5,0-2.3,0c-0.3,0-0.8-0.1-0.6,0.5c0,0.2-0.1,0.2-0.3,0.2
		c-0.6-0.1-1.3,0.5-1.9-0.1c0,0-0.2,0.1-0.3,0.1c-0.6,0.6-1.2,0.6-2,0.6c-0.6,0-1.4-0.2-1.8,0.3c-0.6,0.7-1.4,0.8-2,0.8
		c-1,0.1-1.7,0.2-2.4,0.9c-0.6,0.6-1.2,1.1-1.8,1.7c-0.3,0.4-0.6,0.9-1.3,0.6c-0.1,0-0.2,0.1-0.3,0.2c-0.7,0.5-1.6,0.9-2.3,1.3
		c-0.7,0.4-1.4,0.4-1.6,1.4c-0.2,1.1-0.8,2.1-1.7,2.9c-1.2,1.1-2.2,2.5-3.8,3.1c-0.2,0.1-0.4,0.2-0.4,0.6c1.1-0.5,1.3,0.3,1.5,1
		c-0.1,0-0.2,0-0.2,0c-1-0.4-1.1-0.4-1.1,0.7c0,0.1,0,0.3,0,0.4c0,0.6-0.5,1.1-0.7,1.6c-0.1,0.3-0.6,0-0.9,0.1
		c-1.3,0.2-1.5,0.5-1.1,1.7c0.4,1.1,0.5,2.3,1,3.4c0.1,0.2,0.1,0.4-0.1,0.5c-0.6,0.2-0.8,1-1.5,1c-0.2,0-0.4,0.1-0.4,0.3
		c0,0.3,0.2,0.3,0.4,0.4c0.2,0,0.4,0,0.4,0.2s-0.2,0.4-0.4,0.4c-0.8,0.4-1,1.3-1.8,1.7c-0.2,0.1-0.2,0.5-0.1,0.7
		c0.1,0.2,0.2,0.2,0.4,0.1c0.8-0.5,0.8,0.2,1,0.6c0.1,0.4,0.1,0.8,0.7,0.8c1-0.1,1.3,0.6,1.6,1.3c0.3,0.9,1.2,1.1,1.9,1.7
		c0.1,0.1,0.4,0.1,0.6-0.1c0.3-0.2,0.5-0.2,0.8,0c0.2,0.1,0.4,0.2,0.6,0.2c1-0.1,1.9-0.1,2.8,0.5c0.1,0.1,0.3,0.1,0.4,0
		c0.4-0.3,1.1,0,1.4-0.5c0.1-0.2,0.3,0,0.3,0.2c0.1,0.8,0.8,1.1,1.3,1.4c0.3,0.2,0.7,0.3,0.7,0.8c0,0.4-0.5,0.4-0.8,0.5
		c-0.3,0.1-0.6,0.3-0.7,0.7c-0.1,0.4,0.2,0.6,0.5,0.8c0.6,0.4,1.3,0.4,2,0.4c0.3,0,0.6-0.1,0.6,0.3c0,0.6,0.4,0.7,0.9,0.6
		c0.6,0,0.9,0.3,0.9,0.9c0,0.4,0.1,0.7-0.1,1c-0.3,0.5-0.1,0.7,0.5,0.8c0.2,0,0.5,0.1,0.5,0.3c0,0.3-0.2,0.4-0.4,0.5
		c-1.1,0.8-1.9,1.8-2.3,3.1c-0.1,0.2,0,0.5-0.4,0.5c-0.3,0-0.3-0.3-0.3-0.5c0-0.2-0.1-0.4-0.3-0.3c-0.2,0.1-0.2,0.3-0.2,0.4
		c-0.1,0.5,0.3,0.8,0.6,1c0.4,0.3,0.5,0.5-0.1,0.7c-0.2,0.1-0.5,0.1-0.5,0.5c0.1,0.4,0.4,0.2,0.6,0.2c0.2,0,0.4-0.1,0.5,0.1
		c0.1,0.1,0,0.2-0.1,0.3c-0.1,0.2-0.3,0.3-0.5,0.2c-0.5-0.3-0.8,0-1.1,0.3c-0.3,0.3-0.6,0.4-1,0.3c-0.4-0.2-0.7-0.1-1,0.2
		c-0.4,0.3-0.9,0.4-1,0c-0.1-0.4-1.3-0.8-0.3-1.4c0.1-0.1,0.2-0.2,0.1-0.3c-0.1-0.1-0.2-0.1-0.3-0.1c-0.2,0-0.3,0.1-0.5,0.2
		c-1.1,0.6-2,1.4-3.4,1.3c-0.3,0-0.5,0.1-0.6-0.3c-0.1-0.1-0.2-0.3-0.3-0.2c-0.1,0.1-0.1,0.2,0,0.3c0.2,0.8-0.3,1.3-1.1,1
		c-0.9-0.3-1.7-0.3-2.7-0.1c-0.8,0.1-1.2,0.8-2,1c-0.2,0.1-0.5,0.6,0,0.6c0.7,0,0.9,0.7,1.3,1c0.3,0.2,0.3,0.6-0.1,0.7
		c-0.7,0.3-0.8,0.8-0.7,1.4c0,0.4,0.1,0.7-0.1,1c-0.3,0.8-0.4,1.5,0.6,1.8c-0.8,0.6-0.9,1-0.4,1.7c0.3,0.5,0.3,1.2,1.1,1.4
		c0.3,0.1,0.2,0.5,0.1,0.7c-0.5,0.7-0.1,0.9,0.5,1.1c0.2,0.1,0.4,0.1,0.6,0.2c0.2,0.1,0.3,0.2,0.2,0.4c-0.6,1.1,0.1,2.1,0.4,3.1
		c0.3,0.9,1.1,1.5,1.1,2.5c0,0.5,0.1,1,0.5,1.4c0.2,0.3,0.3,0.6,0.8,0.2c0.3-0.3,0.5,0,0.5,0.3c-0.2,1.3-0.1,2.6,0.8,3.6
		c0.1,0.2,0.1,0.4,0,0.6c-0.1,0.1-0.2,0.1-0.3,0.1c-0.2-0.1-0.4-0.3-0.5-0.1c-0.2,0.3,0.1,0.5,0.3,0.6c0.4,0.3,0.6,0.7,0.6,1.2
		c0,0.4,0.2,0.7,0.3,1.1c0.3,1,0.9,2.1,0.4,3.2c-0.1,0.2,0,0.5,0.3,0.6c0.7,0.3,0.8,0.8,0.3,1.4c-0.1,0.1-0.2,0.3-0.2,0.5
		c0,0.6,1.2,2.1,1.8,2.2c0.1,0,0.2,0,0.4-0.1c0.2-0.1,0.4-0.2,0.5,0c0.1,0.2,0.1,0.4,0,0.6c-0.1,0.2-0.4,0.4-0.6,0.2
		c-0.5-0.4-1.2,0-1.8-0.4c-0.2-0.1-0.6,0.1-0.7,0.4c-0.1,0.2,0.2,0.5,0.3,0.4c0.7-0.2,1.2,0.6,1.9,0.2c0.2-0.1,0.4,0.1,0.4,0.3
		c0.1,0.4-1,1.3-1.3,1.1c-0.5-0.4-1.3-0.5-1.6-1.2c-0.4-0.8-1.1-1.2-1.7-1.7c-0.9-0.7-1.1-0.8-1.2-0.2c3.1,4.7,5.6,10,8.2,13.9
		c7.2,10.8,16.7,19.1,27.2,26.4c-0.1-0.1-0.2-0.2-0.3-0.4c-0.1-0.1-0.3-0.3-0.2-0.5c0.5-0.8,1.1-1.4,1.9-1.8c0,0,0.1,0,0.2,0
		c0.3,0.3,1,0,1.2,0.8c0.1,0.4,0.6,0.3,0.8,0.5c0.4,0.3,0.6,0.4,0.2,0.9c-0.3,0.3-0.6,0.7-0.8,1.2c0.4,0,0.8,0,1.2-0.1
		c0.1-0.1,0.2-0.2,0.3-0.3c0.1-0.1,0.2-0.2,0.3-0.3c0.2-0.3,0.4-0.7,0.9-0.3c0.2,0.2,0.6,0.3,0.5,0.7c1.7-0.1,3.2-0.2,4.6-0.4
		c4.5-0.4,18.5-2.1,20.4-7.7c-0.2-0.1-0.4-0.4-0.6-0.7c-0.1-0.1-0.3-0.3-0.2-0.5c0.1-0.2,0.3,0,0.5,0c0.2,0,0.4,0.1,0.5-0.1
		c0,0,0-0.1,0-0.1c0,0,0,0,0,0c0-0.1-0.2-0.1-0.3-0.2c-0.5-0.4-0.8-0.9-0.8-1.6c0-0.9,0-0.9,0.9-0.7c0.1,0,0.1,0,0.2,0.1
		c0.1-0.4,0.2-0.7,0.3-1c0,0,0,0,0-0.1c0-0.2,0.1-0.3,0.2-0.4c0.8-1.4,2.2-2.4,3.7-2.8c0-0.1,0-0.2,0.1-0.3c0.8-0.3,0.8-1.2,1.5-1.6
		c0.2-0.1,0.3-0.3,0.4-0.6c0.2-0.5,0.4-0.9,1-0.9c0.2,0,0.3-0.2,0.3-0.4c0-0.8,0.4-1.5,0.8-2.2c0.9-1.6,1.9-3.2,2.6-4.8
		c0.8-1.7,1.3-3.4,1.9-5.1c0.5-1.4,1-2.8,1.6-4.2c0.5-1.1,1.5-1.9,1.5-3.2c0-0.1,0.1-0.2,0.2-0.3c0.7-0.5,1.1-1.2,1.5-1.9
		c0.5-0.8,0.8-1.7,1.5-2.5c0.6-0.8,1-1.7,1.6-2.5c0.1-0.1,0.1-0.2,0.1-0.3c0-0.5,0.2-1,0.7-1.3c0.2-0.1,0.3-0.3,0.2-0.5
		c-0.2-0.4-0.4-0.7,0.3-0.6c0.1,0,0.1-0.2,0.2-0.3c0.8-1,0.5-2.5,1.4-3.6c0.5-0.5,0.5-1.4,0.8-2c0.4-0.8,0.4-1.7,0.8-2.5
		c0.5-0.9,0.4-2,0.7-3c0.4-1.3,0.8-2.7,1.1-4.1c0.2-1.1,0.6-2.2,0.6-3.4c0.5-0.3,0.5-0.8,0.3-1.2c-0.3-0.5-0.1-0.9,0.3-1.1
		c0.5-0.4,0.7-0.8,0.5-1.4c-0.1-0.2-0.2-0.6,0-0.7c0.5-0.5,0.4-1.1,0.7-1.7c0.4-0.7,0.5-1.4,0.2-2.2c-0.1-0.2-0.1-0.4,0.1-0.5
		c0.8-0.5,0.8-0.7,0.1-1.3c-0.4-0.4-0.5-0.8,0-1.1c0.8-0.4,0.6-1,0.6-1.6c0-0.6-0.3-1.3,0.3-1.9c0.1-0.1,0.2-0.7-0.2-0.6
		c-0.7,0-0.4-0.3-0.3-0.6c0.2-0.6,0.6-1.4-0.1-1.9c-0.6-0.5-0.3-0.8,0-1.2c0.4-0.5,0.4-1-0.1-1.4c-0.4-0.4-0.5-0.6,0.1-0.9
		c0.2-0.1,0.2-0.4,0.2-0.6c0-0.1-0.1-0.2-0.3-0.2c-0.2,0.1-0.4,0.2-0.4-0.1c0-0.2-0.1-0.5,0.2-0.7c0.5-0.2,0.4-0.5,0.3-0.8
		c-0.1-0.5-0.3-0.9-0.6-1.3c-0.5-0.6-0.5-1.2,0.1-1.8c0.2-0.2,0.2-0.3,0.1-0.5c-0.2-1.4-0.3-2.8-0.6-4.2c-0.2-1.1,0.1-2.3-0.9-3.2
		c-0.1-0.1,0-0.2,0-0.4c0.2-1.4,0.2-2.7-0.3-4.1c-0.2-0.6,0.1-1.4-0.1-2.1c-0.3-1.1,0-2.3-0.2-3.5c0-0.2,0-0.4,0.1-0.5
		c0.5-0.4,0.3-0.9,0.2-1.3c-0.1-0.2-0.2-0.4-0.1-0.6c0.3-0.5,0.2-1,0-1.5c-0.2-0.5-0.2-1,0.5-1c0.1,0,0.2-0.1,0.2-0.2
		c-0.4-0.5,0.2-1.1-0.3-1.6c-0.2-0.3-0.4-0.8,0.2-0.9c0.5-0.1,0.5-0.4,0.5-0.8c0-0.8-0.5-1.4-0.5-2.3c0-0.7,0.1-0.8,0.7-0.7
		c0.2,0,0.6,0.1,0.4-0.3c-0.2-0.5-0.3-1.1-0.8-1.4c-0.3-0.2-0.5-0.4-0.3-0.8c0.2-0.4,0.6-0.4,0.9-0.2c0.2,0.1,0.4,0.3,0.6,0.1
		c0.2-0.2,0-0.5,0-0.7c0-0.1-0.1-0.2-0.1-0.3c-0.2-0.7-0.9-1.1-1.3-1.6c-0.1-0.2-0.2-0.4,0-0.5c0.2-0.1,0.3,0,0.5,0.1
		c0.2,0.2,0.5,0.3,0.7,0.5c0.2,0.1,0.3,0.3,0.5,0.1c0.3-0.2,0-0.4,0-0.5c-0.1-0.4-0.2-0.7,0-1.1c0.2-0.3,0.8-0.5,0.1-0.9
		c0.4-0.8-0.4-1-0.7-1.4c-0.2-0.2-0.6-0.3-0.4-0.6c0.2-0.3,0.5-0.2,0.8,0c0.2,0.1,0.5,0.4,0.7,0.1c0.2-0.2-0.1-0.5-0.1-0.7
		c0-0.1-0.1-0.2-0.2-0.3c-0.1-0.5-0.5-1.4-0.3-1.4c0.6-0.4,0.1-0.6-0.1-0.8c-0.1-0.1-0.3-0.1-0.3-0.3c0-0.2,0.3-0.2,0.4-0.2
		c0.5-0.1,0.5-0.3,0.3-0.7c-0.4-0.9-1.2-1.1-2-1.5c-0.3-0.2-0.6-0.3-0.8-0.7c-0.2-0.3-0.1-0.5,0.2-0.4c0.8,0.2,1.4-0.4,2.1-0.4
		c-0.4-0.7-0.9-1.3-1.8-1.4c-0.2,0-0.4-0.1-0.5-0.3c-0.1-0.4,0.3-0.3,0.5-0.4c0.5-0.2,1.1-0.4,0.3-1.1c-0.2-0.2-0.1-0.5,0-0.7
		c0.2-0.5,0.1-0.9-0.5-1.1c-0.6-0.2-1.4-0.3-1.8-0.9c-0.1-0.2-0.3-0.3,0-0.4c0.7-0.4,1.3-1.2,2.3-1c0.1,0,0.3,0,0.4-0.2
		c0.1-0.2-0.1-0.4-0.3-0.4c-0.7-0.3-0.6-0.7,0-1.1c-0.8,0.1-1.4-0.4-2-0.7c-0.2-0.1-0.5-0.3-0.4-0.6c0-0.7-0.4-0.7-0.9-0.6
		c-0.7,0.1-1.4,0.3-2.1-0.2c-0.1-0.1-0.5,0-0.4-0.3c0-0.3,0.3-0.4,0.6-0.4c0.8,0.2,1.3-0.6,2.1-0.5c0.3,0,0.5-0.6,0.5-0.9
		c-0.1-0.5-0.4-0.1-0.6,0c-0.3,0.1-0.5,0-0.4-0.4c0.1-0.4,0.4-0.6,0.8-0.5c0.2,0,0.7,0,0.5-0.3c-0.4-0.8,0.1-1,0.6-1.3
		c0.2-0.1,0.7-0.1,0.5-0.5c-0.1-0.3-0.5-0.2-0.8-0.3c-0.9-0.1-1.8,0.1-2.7,0.3c-0.4,0.1-0.9,0.1-1.1-0.4c-0.2-0.5-0.5-0.6-1-0.6
		c-0.2,0-0.4,0-0.4-0.2c-0.1-0.1,0-0.3,0.1-0.3c0.6-0.2,0.7-1.1,1.5-0.9c0.2,0,0.5-0.1,0.6-0.4c-0.7-0.1-1.3-0.2-1.9,0.2
		c-0.5,0.3-1,0.4-1.6,0.3c-0.2,0-0.5,0-0.5-0.3c0-0.3,0.2-0.3,0.3-0.4c0.5-0.3,1-0.6,1.3-1.2c-0.6,0.4-1.3-0.4-1.9,0.1
		c-0.1,0.1-0.2-0.1-0.3-0.2c0-0.2,0.1-0.3,0.2-0.3c0.7-0.5,1.5-1,2.3-1.3c0.3-0.1,0.5-0.3,0.6-0.5c0.2-0.2,0.3-0.4,0.1-0.6
		c-0.2-0.2-0.4-0.1-0.6,0c-0.9,0.4-2,0.5-2.8,1.2c-0.1,0.1-0.2,0.1-0.3,0.1c-0.1-0.1-0.1-0.2-0.1-0.3c0.2-0.4,0.1-0.8-0.1-1.2
		c-0.1-0.2-0.1-0.4,0.2-0.6c0.5-0.4,0.8-0.8,1.1-1.3c0.3-0.7,1.1-1,1.6-1.5c0.3-0.3,0.6-0.5,0.6-0.8c0-0.4,0.2-0.7,0.4-0.9
		c0.3-0.3,0.8-0.6,0.4-1c-0.4-0.4-0.7,0.1-1,0.4c-0.1,0.1-0.3,0.4-0.5,0.2c-0.1-0.1-0.2-0.3-0.2-0.5c0-0.2,0.2-0.3,0.4-0.3
		c0.5,0.1,0.7-0.2,0.8-0.6c0-0.2,0.2-0.4,0.4-0.1c0.2,0.3,0.3,0.2,0.5,0c0.2-0.2,0.4-0.5,0.1-0.7c-0.3-0.3-0.1-0.6,0-0.9
		c0.1-0.5,0.8-0.7,0.7-1.3c-0.1-1.8,0.8-3.4,1.2-5.1c0.2-0.9,0.8-1.8,0.2-2.8c-0.4-0.7-0.6-1.5-0.4-2.3c0.1-0.4,0.3-0.8,0.3-1.4
		c-0.4,0.2-0.7,0.2-1,0.2c-0.3,0-0.7,0.2-0.9-0.3c-0.2-0.7-0.6-0.5-1.2-0.4c0.1,0.4,0.6,0.8,0.2,1.3c-0.4-0.8-0.5-1.6-0.7-2.4
		c-0.3-1,0.1-2-0.4-3c0,0,0-0.2,0.1-0.2c0.5-0.4,0.3-0.8,0.2-1.3c-0.1-0.8-0.7-0.6-1.2-0.7c-0.5,0-0.5-0.3-0.6-0.7
		c-0.1-1.1-0.2-2.3,0.2-3.5c-0.7,0.2-1,0.7-1.1,1.2c-0.2,0.6-0.8,0.6-1.1,1.1c-0.1-0.8-0.1-0.8,0.1-1.4c0.1-0.3,0.2-0.6-0.4-0.6
		c-0.3,0-0.6-0.1-0.7-0.4c-0.2-0.6,0.1-1.3-0.4-1.8c0.4-0.9-0.3-1.6-0.3-2.4c-0.5,1-1.1,1.9-1.2,2.9c-0.1,1.1-0.7,1.9-1.3,2.9
		c-0.2-0.3-0.2-0.7-0.6-0.7c-0.3,0.1-0.3,0.4-0.4,0.7c-0.1,0.2-0.1,0.4-0.1,0.7c0,0.4-0.2,0.8-0.4,1.1c-0.4,0.5-0.6,0.3-0.8-0.1
		c-0.1-0.3-0.2-0.7,0-1c0.8-1.3,1.2-2.7,1.2-4.2c0-0.3,0.1-0.6-0.2-0.8c-0.3,0.1-0.2,0.3-0.3,0.4c-0.1,0.3-0.3,0.5-0.6,0.5
		c-0.3,0-0.4-0.3-0.4-0.5c0-0.2,0-0.4,0-0.5c0-2.8,0-5.5-0.1-8.3c0-0.1-0.1-0.3-0.1-0.4c-0.2-0.7-0.5-1.4-0.5-2.2
		c0-0.7-0.4-1.3-0.8-1.9c-0.1-0.1-0.2-0.2-0.3-0.2c-0.1,0-0.2,0.1-0.2,0.3c0.1,1.1-0.4,2-0.5,3c0,0.6-0.1,1-0.8,1.2
		c-0.3,0.1-0.3,0.4-0.3,0.6c-0.2,1-0.3,2.1-1.1,2.7c-0.7,0.5-0.8,1.3-1.2,1.9c-0.1,0.2-0.2,0.5-0.5,0.5c-0.3,0-0.4-0.4-0.5-0.6
		c-0.1-0.2,0-0.4-0.1-0.6c-0.1-0.8,0.2-1.5,0.3-2.2c0.2-1.2,0.3-2.4,0.4-3.7c0-0.6,0.1-1.2,0.6-1.6c0.5-0.4,0.6-0.9,0.7-1.4
		c0.1-0.7-0.4-0.7-0.9-1c-0.7-0.3-0.7,0-0.9,0.4c-0.1,0.3-0.3,0.6-0.4,0.9c-0.3,1.5-1.5,2.3-2.5,3.3c-0.2,0.2-0.4,0.2-0.6,0
		c-0.1-0.1-0.4-2.3-0.3-2.4c0,0,0.1-0.1,0.1-0.1c0.6-0.4,0.3-1,0.3-1.5c0-0.2-0.1-0.3-0.2-0.3c-0.2-0.1-0.3,0.1-0.4,0.3
		c-0.1,0.4-0.3,0.7-0.4,1.1c-0.1,0.2-0.1,0.4-0.3,0.4c-0.3,0-0.3-0.2-0.5-0.3c-0.2-0.3-0.1-0.7-0.2-1c-0.1-0.4-0.3-0.7-0.7-0.7
		c-0.3,0-0.6,0.1-0.6,0.5c0,0.2,0.2,0.4-0.2,0.4c-0.3,0-0.3-0.3-0.3-0.5c0-0.7-0.4-1.4-0.3-2.1c0-0.1-0.1-0.4-0.1-0.4
		c-0.8-0.2-1-1-1.4-1.6c-0.2-0.2-0.3-0.6-0.7-0.4c-0.3,0.2,0,0.4,0,0.7c0.1,0.2,0.2,0.6-0.1,0.7c-0.3,0.1-0.4-0.2-0.6-0.4
		c-0.4-0.6-0.7-1.3-0.7-2.1c-0.4,0.4-0.5,0.8-0.9,0.9c-0.2,0-0.2,0.3-0.1,0.4c0.3,0.5,0.1,0.8-0.5,1c-0.5,0.1-0.7,0.9-1.1,1
		c-0.4,0.1-0.9-0.5-1.4-0.4c-0.2,0-0.5,0-0.6-0.2c-0.2-0.6-0.7-0.4-1.1-0.2c-0.3,0.2-0.6,0.1-0.9-0.1c-0.2-0.2-0.4-0.4-0.7-0.6
		c-0.2,1.3-0.2,1.3-1.4,0.8c-0.1-0.1-0.3-0.3-0.4-0.1c-0.6,1.2-0.8,0.3-1-0.2c-0.1-0.2-0.2-0.4-0.4-0.6c-0.4-0.4-0.4-0.9-0.2-1.4
		c0.3-0.6,0.4-1.3,0.5-2c0.1-0.3,0-0.6-0.2-0.7c-0.4-0.3-0.5-0.3-0.5-0.7c0-0.4-0.1-0.4-0.5-0.3c-0.8,0.3-1.3,0.8-1.3,1.7
		c0,0.3,0,0.6-0.3,0.7c-0.3,0.1-0.6,0-0.8-0.3c-0.3-0.5-0.4-0.2-0.6,0.1c-0.3,0.8-0.7,1.6-0.9,2.5c-0.1,0.3-0.3,0.9-0.8,0.5
		c-0.4-0.3-0.4-0.2-0.5,0.1c-0.1,0.2-0.2,0.4-0.5,0.5c-0.3-0.5-0.4-1.2-1-1.5c-0.5,0.9-0.9,1-1.4,0.3c-0.1,1.8-1.7,2.1-2.8,3
		c-0.1-1.1-1-1.6-1.8-1.1c-0.1,0.1-0.2,0.2-0.3,0.1c-0.5-0.4-1.1-0.6-1.1-1.4c0-0.5,0.1-1-0.1-1.5c-0.2,0.3-0.2,0.5-0.2,0.7
		c-0.1,0.6-0.3,0.7-0.8,0.3c-0.2-0.1-0.3-0.5-0.5-0.3c-0.3,0.1-0.1,0.5-0.1,0.7c0,0.2,0,0.5,0,0.7c0,0.2-0.1,0.5-0.3,0.5
		c-0.3,0.1-0.5,0-0.7-0.1c-0.3-0.3-0.4-0.7-0.2-1c0.5-0.8-0.2-1.8,0.4-2.6c0.1-0.1,0-0.3-0.1-0.5c-0.1-0.2-0.2-0.2-0.4-0.2
		c-0.2,0-0.4,0.1-0.4,0.2c0.4,0.8-0.4,0.6-0.7,0.7c-0.2,0.1-0.4,0.1-0.5,0.3c-0.4,1.2-1.5,1.8-2.2,2.7c-0.1,0.1-0.2,0.2-0.4,0.1
		c-0.2-0.1-0.1-0.2-0.1-0.4c0.2-0.6-0.1-0.5-0.5-0.4c-0.2,0.1-0.3,0.1-0.5,0.2c-0.3,0.3-0.6,0.2-0.8-0.2c-0.5-0.7-0.5-0.6-1.1,0
		c-0.2,0.3-0.3,0.5-0.3,0.8c0,0.5-0.4,0.7-0.7,0.9c-0.3,0.2-0.2-0.3-0.5-0.4c-0.2,0.3-0.5,0.7-1,0.4c-0.3-0.2-0.4,0.1-0.5,0.4
		c-0.1,0.5-0.4,0.8-0.9,0.4c-0.7-0.4-1,0-1.1,0.5c-0.1,0.8-0.6,1-1.1,1.3c-0.2,0.1-0.4,0.2-0.4,0.3c-0.3,0.8-1.1,0.9-1.9,1.1
		c-0.6,0.1-0.8,0.5-0.7,1c0,0.2,0.2,0.4,0,0.5c-0.6,0.6-1.3,0.9-2.1,1c-0.3,0.1-0.4-0.2-0.3-0.4c0.5-0.8,0.6-1.8,1.2-2.6
		c0.5-0.7,1-1.4,1.5-2.1c0.2-0.3,0.3-0.7,0-0.9c-0.3-0.2-0.7-0.5-1.1-0.1c-0.5,0.4-1.1,0.8-1.3,1.4c-0.4,0.8-1.3,1-1.6,1.8
		c0,0.1-0.2,0.1-0.3,0c-0.5-0.2-0.7,0.1-0.9,0.4c-0.5,0.7-0.5,1.5-1.3,2.2c-1.2,1-2,2.4-3.4,3.3c-0.2,0.1-0.3,0.3-0.4,0.4
		c-0.2,0.4-0.5,0.6-0.8,0.7c-0.3,0.1-0.5,0.3-0.7,0.6c-0.1,0.4-0.4,0.6-0.7,0.8c-0.6,0.4-1.1,1-1.7,1.5c-0.5,0.6-0.9,1.3-1.9,1.2
		c-0.2,0-0.5,0.4-0.4,0.6c0.2,0.7-0.4,1-0.8,1.2c-0.5,0.3-0.8,0.6-1.1,1.1c-0.6,1.1-1.3,2.2-2.4,2.8c-0.2,0.1-0.3,0.3-0.4,0.5
		c-0.9,1.7-2.3,3.2-3.1,4.9c-0.1,0.1-0.2,0.3-0.3,0.2c-0.2-0.1-0.2-0.3-0.1-0.4c0.5-0.8,0-1.9,0.8-2.6c0.2-0.2,0.2-0.5,0.1-0.7
		c0-0.2-0.1-0.4-0.3-0.4c-0.2,0-0.3,0.2-0.3,0.3c-0.1,0.5-0.3,1-0.7,1.5c-0.1-1,0.2-1.7,0.5-2.4c0.7-1.4,1.2-2.8,1.8-4.3
		c0.1-0.2,0.2-0.4-0.1-0.5c-0.2-0.1-0.3,0.1-0.4,0.3c-0.5,1-1.1,1.9-1.6,2.8c-0.9,1.6-2.1,3.1-2.4,5c0,0.1-0.1,0.2-0.2,0.3
		c-0.4,0.4-0.6,1-0.7,1.6c-0.1,1.1-0.4,2.1-0.7,3.2c-0.1,0.2-0.2,0.4-0.4,0.4C50,83.4,50,83.1,50,83c0-0.2,0-0.5,0-0.7
		c0-0.1,0-0.3-0.1-0.3c-0.2,0-0.3,0.1-0.3,0.3c-0.1,0.5-0.4,1-0.3,1.6c0,0.3-0.1,0.6-0.4,0.6c-0.3-0.1-0.2-0.4-0.1-0.6
		c0.2-1,0.2-2.1,0.1-3.2c-0.8,1.1-1.1,2.5-1.9,3.6c-0.4-0.4-0.5-0.8-0.1-1.2c0.4-0.4,0.2-0.8,0.3-1.3c0-0.2,0-0.4-0.3-0.4
		c-0.2,0-0.2,0.2-0.2,0.4c-0.1,0.6-0.2,1.3-0.4,1.9c-0.4,1.7-1,3.5-1.1,5.3c0,0.5-0.1,0.9-0.2,1.4c0,0.3-0.2,0.5-0.5,0.5
		c-0.3,0-0.2-0.3-0.4-0.5c-0.4-0.5-0.8-0.9-1.3-1.5c0,0.3-0.1,0.4-0.1,0.6c0,2,0.1,3.9-0.2,5.9c0,0.3,0,0.6-0.2,0.9
		c-0.1,0.1-0.2,0.2-0.4,0.2c-0.1-0.1-0.1-0.2-0.1-0.3c-0.1-0.6-0.1-1.1-0.2-1.7c-0.3,0.4-0.3,0.8-0.3,1.2c0,1.1-0.1,2.3-0.2,3.4
		c0,0.6-0.3,1.3,0.1,2c0.2,0.3,0.2,0.7-0.2,0.8c-0.4,0.2-0.6-0.1-0.7-0.4c-0.6-1.2-1-2.6-1.1-4c0-0.2-0.1-0.5-0.1-0.7
		c-0.1-0.2-0.2-0.2-0.4-0.1c-0.1,0-0.2,0.1-0.2,0.3c0.4,0.7,0.6,1.4-0.2,2c0,0,0,0.1,0,0.1c-0.2,0.7-0.1,1.4,0.2,2.1
		c0.6,1.1,0.2,2.4,0.7,3.5c0,0.1,0,0.2-0.1,0.3c-0.6,0.4-0.2,0.8,0,1.2c0.1,0.4,0.4,1,0.1,1.2c-0.5,0.2-0.6-0.6-0.8-0.9
		c-0.2-0.3,0-0.8-0.5-1c0,0.6-0.1,1.1-0.1,1.6c-0.5-0.6-0.8-1.4-1.9-1c0.7,0.8,1.1,1.7,1.4,2.6c0.1,0.2,0.3,0.4,0,0.6
		c-0.2,0.1-0.4-0.1-0.5-0.3c-0.4-0.4-0.7-0.9-1.3-1.2c0.3,0.5,0.1,0.9,0,1.3c-0.1,0.3,0,0.8,0.4,1c0.4,0.3,0.6,0.6,0.7,1.1
		c0.1,0.2,0.3,0.4,0,0.6c-0.2,0.2-0.5,0.1-0.8-0.1c-0.3-0.3-0.7-0.5-1.1-0.7c-0.4-0.2-0.4-0.1-0.5,0.2c-0.3,0.9,0.3,2-0.7,2.6
		c0,0,0,0.1,0.1,0.2c0.1,0.3-0.1,0.5-0.2,0.6c-0.6,0.4-0.2,0.7,0.1,0.9c0.5,0.3,1,0.6,1.6,0.9c0.3,0.1,0.4,0.4,0.3,0.6
		c-0.1,0.3-0.3,0.2-0.5,0.2c-0.8,0.2-1.4,0-2.1-0.6c0,0.6,0.1,1.1,0.5,1.5c0.3,0.3,0.5,0.6,0.8,0.9c0.1,0.1,0.2,0.3,0.1,0.4
		c-0.1,0.2-0.3,0-0.4,0c-0.4-0.1-0.7-0.4-1.1-0.3c-0.3,0-0.6-0.2-0.7,0.2c-0.1,0.3,0.1,0.5,0.3,0.7c0.2,0.2,0.5,0.4,0.2,0.7
		c-0.4,0.4-0.3,0.6,0.1,0.9c0.1,0.1,0.4,0.3,0.3,0.5c-0.1,0.2-0.3,0.2-0.5,0.2c-0.6,0-0.9,0.4-1.3,0.9c0.8-0.1,1.1,0.5,1.5,1.1
		c-0.3,0-0.6,0.1-0.8,0.1c-0.4,0.1-0.7,0.3-0.7,0.7c0,0.5-0.3,0.5-0.6,0.4c0,0.8,0.6,1,1.1,1.2c0.3,0.1,0.6-0.2,0.9-0.2
		c0.3,0,0.5,0.1,0.6,0.4c0.1,0.3-0.2,0.5-0.4,0.5c-0.8,0.2-1.4,0.6-1.7,1.4c-0.1,0.3-0.5,0.4-0.3,0.8c0.2,0.4,0.5,0.4,0.8,0.3
		c0.4,0,0.7,0.1,0.6,0.5c-0.1,0.7-0.1,1.2,0.8,0.9c0.2-0.1,0.4,0.1,0.5,0.3c0.1,0.2-0.1,0.3-0.2,0.3c-1-0.1-1.4,0.9-2.2,1.2
		c-0.4,0.2-0.4,0.7,0,0.8c0.4,0.2,0.3,0.9,0.9,0.9c0.1,0,0.1,0.2,0,0.3c-0.6,0.6-0.6,1.4-0.5,2.1c0,0.2,0,0.4-0.2,0.6
		c-0.7,0.8-0.7,0.9,0.3,1.5c0.5,0.3,0.9,0.7,0.2,1.2c-0.3,0.2-0.2,0.7-0.1,0.8c0.5,0.5,0.2,1.1,0.2,1.7c0,0.3,0.3,0.6,0.2,1
		c-0.4,1.1,0,2.1,0.8,2.9c0.4,0.4,0.6,0.9,0.2,1.4c-0.4,0.6-0.5,1.1,0,1.6c0.3,0.3,0.3,0.6-0.2,0.8c-0.2,0-0.5,0.1-0.2,0.3
		c0.3,0.3,0.2,0.6,0.2,1c0,0.2,0,0.6,0.3,0.6c1.1,0,0.6,0.7,0.4,1c-0.2,0.6-0.2,1,0.1,1.5c0.3,0.4,0.3,0.7-0.1,1
		c-0.3,0.2-0.4,0.5-0.2,0.7c0.3,0.4,0.3,1.1,1,1.2c0.2,0,0.3,0.2,0.3,0.3c0,0.8,0.3,1.6,0.5,2.4c0.1,0.8-0.1,1.6,0.1,2.5
		c0.3-0.3,0.5-0.7,0.8-0.4c0.3,0.3-0.1,0.5-0.2,0.8c-0.1,0.4-0.4,0.8,0.3,1c0.2,0.1,0.4,0.3,0.1,0.4c-0.6,0.1-0.3,0.3-0.2,0.6
		c0.6,1,1.1,2.1,2,2.9c0.8,0.7,0.3,1.8,0.9,2.6c0.1,0.1-0.1,0.3-0.2,0.4c-0.5,0.5-0.9,0-1.2-0.3c-1.1-0.8-2.1-0.9-2.7,0.3
		c-0.7,1.3-0.4,2.8-0.8,4.2c0,0.1,0,0.2,0.1,0.3c0.2,1,0.6,2-0.1,3c1,0,1.4,0.5,1.4,1.3c0,0.2,0.1,0.3,0.2,0.5
		c0.2,0.3,0.2,0.5-0.2,0.4c-0.2,0-0.3,0.1-0.3,0.2c0,0.1,0.1,0.2,0.3,0.2c0.7,0.1,1.4,1.2,1.2,2c-0.1-0.6-0.6-0.9-0.9-1.4
		c0.4,1.5,1.4,2.6,2.1,3.8c0.4,0.8,1,1.4,1.6,2.1c0.5,0.7,0.7,1.6,1.4,2.2c0.2,0.2,0.4,0.4,0.7,0.3c0.3-0.1,0.5-0.3,0.5-0.7
		c0.1-0.7-0.1-1.3-0.4-2c-0.5-1-0.4-2-0.7-3.1c0.4,0,0.4,0.3,0.5,0.4c0.2,0.5,0.5,1,1,1.3c1.1,0.7,1.3,1.9,1.4,3.1
		C43.3,190.1,43.4,190.7,43.5,191.3z M74.6,157.3c-0.2,0-0.4-0.1-0.4-0.3c0-0.3,0.1-0.4,0.4-0.4c0.2,0,0.4,0.1,0.4,0.3
		C75,157.2,74.8,157.3,74.6,157.3z M69.5,195.8c-0.2,0-0.5,0-0.4-0.3c0.1-0.3,0.6-0.4,0.9-0.4c0.2,0,0.4,0,0.3,0.2
		C70.2,195.7,69.9,195.7,69.5,195.8z M76.8,227.8c-0.2,0-0.4-0.1-0.4-0.4c0-0.2,0.1-0.2,0.3-0.2c0.2,0,0.4,0.1,0.5,0.4
		C77.2,227.8,77,227.8,76.8,227.8z M83.2,193.1c-0.2,0-0.3-0.1-0.3-0.3c0-0.2,0.1-0.3,0.3-0.3c0.2,0,0.3,0.2,0.3,0.4
		C83.5,193,83.4,193.1,83.2,193.1z M97.6,264.4c0.2,0,0.4-0.3,0.6,0c0,0,0,0.1-0.1,0.2c-0.2,0.2-0.4,0.2-0.7,0.2
		c-0.1,0-0.3-0.1-0.3-0.3C97.3,264.3,97.5,264.4,97.6,264.4z M91.6,191.4c0.5,0.1,0.8,0.5,1.1,0.8c-0.4,0-0.8-0.1-1.2-0.1
		c-0.2,0-0.5-0.1-0.4-0.4C91.1,191.4,91.3,191.3,91.6,191.4z M86.7,191.1c0.4,0,0.7,0.2,0.7,0.6c0,0.5-0.4,0.6-0.7,0.6
		c-0.5,0.1-0.6-0.3-0.6-0.7C86,191.2,86.5,191.3,86.7,191.1z M86.1,199.2c-0.1,0.7-1.6,1-2.2,0.6c-0.2-0.1-0.2-0.3,0-0.4
		c0.2-0.2,0.3-0.5,0.5-0.8c0.3-0.4,0.4-0.7,0.1-1.2c-0.3-0.5,0.2-1.1-0.1-1.7c0.7,0,1-0.4,1-1c0.7,0.1,0.9-0.4,1.2-0.9
		c0.1-0.1,0.3-0.2,0.4-0.2c0.7,0.2,1.1-0.6,1.8-0.6c0.3,0,0.2-0.2,0-0.4c-0.3-0.2-0.5-0.4-0.8-0.6c-0.2-0.2-0.3-0.4-0.1-0.6
		c0.4-0.2,0.8-0.5,1.3-0.6c0.3-0.1,0.9,0,1,0.4c0.1,0.4,0.7,0.9,0.1,1.4c-0.3,0.3-0.1,0.5,0.2,0.5c0.5,0,0.9,0.1,1.3,0.3
		c0.4,0.1,0.6-0.1,0.7-0.4c0.1-0.3,0.1-0.6,0.2-0.9c0.1,0,0.3,0.1,0.3,0c0.3-0.9,1.1-0.5,1.7-0.7c0.3-0.2,0.3,0.1,0.3,0.3
		c-0.1,0.3-0.3,0.5-0.4,0.8c-0.1,0.2-0.2,0.3-0.2,0.6c0.1,0.3,0.5,0.5,0.2,0.8c-0.4,0.5-0.7,1.1-1.4,1.4c-0.4,0.1-0.8,0.5-1.3,0.4
		c-0.2,0-0.6,0.1-0.7,0.3c-0.8,1-2.1,1.1-3.2,1.6C87.2,198.1,86.3,198.1,86.1,199.2z M91.1,262.5c-0.3,0.1-1.2-0.8-1.2-1
		c0.2-0.6,0.9-0.5,1.3-0.6c0.4-0.1,0.6,0.3,0.7,0.7C91.9,262,91.6,262.4,91.1,262.5z M94.6,265.2c-0.1-0.1-0.2-0.1-0.3-0.1
		c-0.7-0.5-1.4-1.1-2.1-1.7c-0.2-0.2-0.5-0.5-0.2-0.8c0.3-0.3,0.6-0.7,1-0.4c0.8,0.4,1.7,0.8,2.4,1.4c0.3,0.2,0.3,0.5,0.2,0.8
		C95.4,264.8,95,265,94.6,265.2z M95.6,265.9c-0.3-0.3,0.2-0.6,0.3-0.8c0.3-0.3,0.7-0.4,1.1-0.2c0.2,0.1,0.6,0.3,0.3,0.6
		c-0.2,0.3-0.1,0.6-0.2,0.9C96.4,266.9,96,266.3,95.6,265.9z M99.5,265.5c-0.3,0.3-0.2,0.7-0.3,1.1c0,0.5-0.7,1.2-1.1,1.1
		c-0.6-0.1-1-0.6-0.9-1.3c0.7-0.4,1.4-0.6,1.9-1.3c0.1-0.1,0.2-0.3,0.4-0.1C99.6,265.2,99.6,265.4,99.5,265.5z M158.3,200.8
		c0.3-0.1,0.2,0.2,0.3,0.4c-0.1,0.2-0.3,0.3-0.5,0.5C157.8,201.3,157.9,201,158.3,200.8z M141.2,60.6c0.2-0.1,0.4,0.1,0.3,0.3
		c-0.1,0.4-0.3,0.7-0.7,0.6c0,0,0,0,0-0.1C140.8,61.1,140.8,60.7,141.2,60.6z M140.5,61.6c0.1-0.1,0.2-0.1,0.3-0.1
		c0.5,0.5,0.4,1,0.2,1.6c-0.2,0.6-0.3,1.2-0.6,1.7c-0.2,0.4-1,0.4-0.7,1.1C139.1,64.7,139.5,62.6,140.5,61.6z M118.8,194.7
		c0.1-1.3,1.1-1.8,2-2.4c0.3-0.2,0.5-0.5,0.6-0.8c0.1-0.4,0.2-0.8,0.5-1.1c0.1-0.2,0.2-0.4,0-0.6c-0.1-0.1-0.3-0.4-0.1-0.5
		c0.8-0.3,0.4-0.7,0.2-1.2c-0.1-0.3,0.1-0.7,0.2-1c0.2-1-0.2-2.1,0.3-3.1c0.6-1.1,0.7-2.4,1.5-3.4c0.3-0.4,0.4-0.9,0.3-1.5
		c-0.3-0.9,0.4-1.5,1-1.9c0.7-0.5,0.6-1.2,0.9-1.7c0.2-0.4,0.2-1.1,0-1.6c0-0.1,0-0.3,0-0.3c0.7-0.4,0.6-1.3,1-1.9
		c0.3-0.4,0.6-0.5,1.1-0.5c1.2-0.1,1.7,0.4,2.2,1.5c0.3,0.7,0.6,1.1,0.3,1.8c-0.1,0.2,0,0.3,0.1,0.4c0.7,0.8,1.2,1.8,1.7,2.7
		c0.4,0.7,1,1.3,0,1.9c1.1,0.4,1.7,1.1,2.1,2.1c0.5,1.2,0.6,2.4,0.6,3.6c0,0.4,0.1,0.8,0.3,1.1c0.5,0.7,0.4,1.4,0.4,2.2
		c0,0.3-0.1,0.5-0.3,0.7c-0.5,0.5-0.5,1-0.1,1.5c0.3,0.4,0.3,0.6-0.1,1c-0.5,0.5-1.2,1.1-1.4,1.6c-0.2,0.7-0.7,1.2-1,1.9
		c-0.1,0.4-0.4,0.6-0.8,0.6c-0.4,0-0.7,0.1-0.9,0.4c0,0.1-0.2,0.1-0.2,0.1c-0.7-0.4-1.3,0.3-1.9,0.3c-0.5,0-0.9-0.1-1.4-0.3
		c-0.3-0.1-0.6,0.7-1.1,0.7c-0.5,0-0.9-0.1-1.4,0.2c-0.5,0.2-0.9,0.4-1.2,0.9c-0.2,0.3-0.6,0.4-1,0.4c-0.8-0.1-1.6-0.1-2.3,0.6
		c-0.4,0.5-1.5,0.5-2.1,0.1c-0.1-0.1-0.2-0.2-0.4-0.2c-0.8-0.2-1.2-0.6-0.7-1.4C117.2,196.3,118.7,195.7,118.8,194.7z M103,60.7
		c0-0.1,0.1-0.2,0.3-0.2c0.2,0,0.2,0.2,0.1,0.3c-0.2,0.4-0.2,0.8-0.5,1.2C102.6,61.4,102.8,61.1,103,60.7z M92.8,113.2
		c-0.2,0-0.4-0.1-0.4-0.4c0.1-0.2,0.2-0.4,0.5-0.4c0.3,0,0.3,0.2,0.3,0.4C93.2,113.1,93.1,113.2,92.8,113.2z M92.3,56.1
		c0.1-0.3,0-0.8,0.5-0.9c0.5,0,0.5,0.4,0.5,0.6c0,0.5-0.1,0.8-0.5,0.8C92.4,56.6,92.2,56.5,92.3,56.1z M77.7,63.9
		c0.1,0.6,0,1.1-0.6,1.3C77,64.4,77.1,64.3,77.7,63.9z M76.8,65.3c0.1,0,0.2,0,0.3,0c-0.1,0.1-0.1,0.2-0.2,0.3
		c-0.1,0.1-0.1,0.4-0.4,0.5c-0.1,0-0.2-0.1-0.2-0.2C76.4,65.6,76.5,65.4,76.8,65.3z"/>
</g>
</svg>
