<svg xmlns="http://www.w3.org/2000/svg" viewBox="0 0 128.06 128.06"><defs><style>.cls-1{fill:none;}.cls-2{fill:#fff;}</style></defs><title>Social-Icon1</title><g id="Layer_2" data-name="Layer 2"><g id="Layer_1-2" data-name="Layer 1"><g id="Layer_2-2" data-name="Layer 2"><g id="Layer_1-2-2" data-name="Layer 1-2"><circle class="cls-1" cx="64.03" cy="64.03" r="64.03"/><path class="cls-2" d="M64,37.63c8.53,0,9.54,0,12.9.19a17.64,17.64,0,0,1,5.93,1.1A10.58,10.58,0,0,1,88.92,45,17.75,17.75,0,0,1,90,50.9c.15,3.37.19,4.38.19,12.9s0,9.54-.19,12.9a17.64,17.64,0,0,1-1.1,5.93,10.58,10.58,0,0,1-6.06,6.06,17.64,17.64,0,0,1-5.93,1.1C73.57,90,72.56,90,64,90s-9.54,0-12.9-.19a17.64,17.64,0,0,1-5.93-1.1,10.58,10.58,0,0,1-6.06-6.06A17.71,17.71,0,0,1,38,76.71c-.15-3.37-.19-4.38-.19-12.9s0-9.54.19-12.9A17.81,17.81,0,0,1,39.13,45a10.58,10.58,0,0,1,6.06-6.06,17.64,17.64,0,0,1,5.93-1.1c3.37-.15,4.38-.19,12.9-.19m0-5.75c-8.67,0-9.76,0-13.17.19a23.32,23.32,0,0,0-7.75,1.48,16.33,16.33,0,0,0-9.34,9.34,23.32,23.32,0,0,0-1.48,7.75c-.16,3.41-.19,4.49-.19,13.17s0,9.76.19,13.17a23.32,23.32,0,0,0,1.48,7.75,16.33,16.33,0,0,0,9.34,9.34,23.32,23.32,0,0,0,7.75,1.48c3.41.16,4.49.19,13.17.19s9.76,0,13.17-.19a23.32,23.32,0,0,0,7.75-1.48,16.33,16.33,0,0,0,9.34-9.34A23.59,23.59,0,0,0,95.77,77c.16-3.41.19-4.49.19-13.17s0-9.76-.19-13.17a23.32,23.32,0,0,0-1.48-7.75A16.33,16.33,0,0,0,85,33.57a23.32,23.32,0,0,0-7.75-1.48c-3.41-.16-4.49-.19-13.17-.19Z"/><path class="cls-2" d="M64,47.41a16.4,16.4,0,1,0,16.4,16.4h0A16.4,16.4,0,0,0,64,47.41Zm0,27A10.64,10.64,0,1,1,74.67,63.8h0A10.64,10.64,0,0,1,64,74.45h0Z"/><circle class="cls-2" cx="81.07" cy="46.76" r="3.83"/></g></g></g></g></svg>